<?xml version="1.0" encoding="utf-8" standalone="no"?>
<!DOCTYPE svg PUBLIC "-//W3C//DTD SVG 1.1//EN"
  "http://www.w3.org/Graphics/SVG/1.1/DTD/svg11.dtd">
<svg xmlns:xlink="http://www.w3.org/1999/xlink" width="442.002187pt" height="356.13855pt" viewBox="0 0 442.002187 356.13855" xmlns="http://www.w3.org/2000/svg" version="1.1">
 <metadata>
  <rdf:RDF xmlns:dc="http://purl.org/dc/elements/1.1/" xmlns:cc="http://creativecommons.org/ns#" xmlns:rdf="http://www.w3.org/1999/02/22-rdf-syntax-ns#">
   <cc:Work>
    <dc:type rdf:resource="http://purl.org/dc/dcmitype/StillImage"/>
    <dc:date>2023-08-16T16:06:22.023521</dc:date>
    <dc:format>image/svg+xml</dc:format>
    <dc:creator>
     <cc:Agent>
      <dc:title>Matplotlib v3.7.1, https://matplotlib.org/</dc:title>
     </cc:Agent>
    </dc:creator>
   </cc:Work>
  </rdf:RDF>
 </metadata>
 <defs>
  <style type="text/css">*{stroke-linejoin: round; stroke-linecap: butt}</style>
 </defs>
 <g id="figure_1">
  <g id="patch_1">
   <path d="M 0 356.13855 
L 442.002187 356.13855 
L 442.002187 0 
L 0 0 
z
" style="fill: #ffffff"/>
  </g>
  <g id="axes_1">
   <g id="patch_2">
    <path d="M 64.092188 301.161675 
L 421.212188 301.161675 
L 421.212188 35.049675 
L 64.092188 35.049675 
z
" style="fill: #ffffff"/>
   </g>
   <g id="matplotlib.axis_1">
    <g id="xtick_1">
     <g id="line2d_1">
      <path d="M 64.092188 301.161675 
L 64.092188 35.049675 
" clip-path="url(#pa7f6a23c97)" style="fill: none; stroke: #b0b0b0; stroke-opacity: 0.45; stroke-width: 0.8; stroke-linecap: square"/>
     </g>
     <g id="line2d_2">
      <defs>
       <path id="m8851f4b209" d="M 0 0 
L 0 3.5 
" style="stroke: #000000; stroke-width: 0.8"/>
      </defs>
      <g>
       <use xlink:href="#m8851f4b209" x="64.092188" y="301.161675" style="stroke: #000000; stroke-width: 0.8"/>
      </g>
     </g>
     <g id="text_1">
      <!-- $\lambda_1$ -->
      <g transform="translate(54.462188 321.838862) scale(0.18 -0.18)">
       <defs>
        <path id="DejaVuSans-Oblique-3bb" d="M 2350 4316 
L 3125 0 
L 2516 0 
L 2038 2588 
L 328 0 
L -281 0 
L 1903 3356 
L 1794 3975 
Q 1725 4369 1391 4369 
L 1091 4369 
L 1184 4863 
L 1550 4856 
Q 2253 4847 2350 4316 
z
" transform="scale(0.015625)"/>
        <path id="DejaVuSans-31" d="M 794 531 
L 1825 531 
L 1825 4091 
L 703 3866 
L 703 4441 
L 1819 4666 
L 2450 4666 
L 2450 531 
L 3481 531 
L 3481 0 
L 794 0 
L 794 531 
z
" transform="scale(0.015625)"/>
       </defs>
       <use xlink:href="#DejaVuSans-Oblique-3bb" transform="translate(0 0.015625)"/>
       <use xlink:href="#DejaVuSans-31" transform="translate(59.179688 -16.390625) scale(0.7)"/>
      </g>
     </g>
    </g>
    <g id="xtick_2">
     <g id="line2d_3">
      <path d="M 93.852188 301.161675 
L 93.852188 35.049675 
" clip-path="url(#pa7f6a23c97)" style="fill: none; stroke: #b0b0b0; stroke-opacity: 0.45; stroke-width: 0.8; stroke-linecap: square"/>
     </g>
     <g id="line2d_4">
      <g>
       <use xlink:href="#m8851f4b209" x="93.852188" y="301.161675" style="stroke: #000000; stroke-width: 0.8"/>
      </g>
     </g>
     <g id="text_2">
      <!-- $\lambda_2$ -->
      <g transform="translate(84.222188 321.838862) scale(0.18 -0.18)">
       <defs>
        <path id="DejaVuSans-32" d="M 1228 531 
L 3431 531 
L 3431 0 
L 469 0 
L 469 531 
Q 828 903 1448 1529 
Q 2069 2156 2228 2338 
Q 2531 2678 2651 2914 
Q 2772 3150 2772 3378 
Q 2772 3750 2511 3984 
Q 2250 4219 1831 4219 
Q 1534 4219 1204 4116 
Q 875 4013 500 3803 
L 500 4441 
Q 881 4594 1212 4672 
Q 1544 4750 1819 4750 
Q 2544 4750 2975 4387 
Q 3406 4025 3406 3419 
Q 3406 3131 3298 2873 
Q 3191 2616 2906 2266 
Q 2828 2175 2409 1742 
Q 1991 1309 1228 531 
z
" transform="scale(0.015625)"/>
       </defs>
       <use xlink:href="#DejaVuSans-Oblique-3bb" transform="translate(0 0.015625)"/>
       <use xlink:href="#DejaVuSans-32" transform="translate(59.179688 -16.390625) scale(0.7)"/>
      </g>
     </g>
    </g>
    <g id="xtick_3">
     <g id="line2d_5">
      <path d="M 123.612188 301.161675 
L 123.612188 35.049675 
" clip-path="url(#pa7f6a23c97)" style="fill: none; stroke: #b0b0b0; stroke-opacity: 0.45; stroke-width: 0.8; stroke-linecap: square"/>
     </g>
     <g id="line2d_6">
      <g>
       <use xlink:href="#m8851f4b209" x="123.612188" y="301.161675" style="stroke: #000000; stroke-width: 0.8"/>
      </g>
     </g>
     <g id="text_3">
      <!-- $\lambda_3$ -->
      <g transform="translate(113.982188 321.838862) scale(0.18 -0.18)">
       <defs>
        <path id="DejaVuSans-33" d="M 2597 2516 
Q 3050 2419 3304 2112 
Q 3559 1806 3559 1356 
Q 3559 666 3084 287 
Q 2609 -91 1734 -91 
Q 1441 -91 1130 -33 
Q 819 25 488 141 
L 488 750 
Q 750 597 1062 519 
Q 1375 441 1716 441 
Q 2309 441 2620 675 
Q 2931 909 2931 1356 
Q 2931 1769 2642 2001 
Q 2353 2234 1838 2234 
L 1294 2234 
L 1294 2753 
L 1863 2753 
Q 2328 2753 2575 2939 
Q 2822 3125 2822 3475 
Q 2822 3834 2567 4026 
Q 2313 4219 1838 4219 
Q 1578 4219 1281 4162 
Q 984 4106 628 3988 
L 628 4550 
Q 988 4650 1302 4700 
Q 1616 4750 1894 4750 
Q 2613 4750 3031 4423 
Q 3450 4097 3450 3541 
Q 3450 3153 3228 2886 
Q 3006 2619 2597 2516 
z
" transform="scale(0.015625)"/>
       </defs>
       <use xlink:href="#DejaVuSans-Oblique-3bb" transform="translate(0 0.015625)"/>
       <use xlink:href="#DejaVuSans-33" transform="translate(59.179688 -16.390625) scale(0.7)"/>
      </g>
     </g>
    </g>
    <g id="xtick_4">
     <g id="line2d_7">
      <path d="M 153.372187 301.161675 
L 153.372187 35.049675 
" clip-path="url(#pa7f6a23c97)" style="fill: none; stroke: #b0b0b0; stroke-opacity: 0.45; stroke-width: 0.8; stroke-linecap: square"/>
     </g>
     <g id="line2d_8">
      <g>
       <use xlink:href="#m8851f4b209" x="153.372187" y="301.161675" style="stroke: #000000; stroke-width: 0.8"/>
      </g>
     </g>
     <g id="text_4">
      <!-- $\lambda_4$ -->
      <g transform="translate(143.742188 321.838862) scale(0.18 -0.18)">
       <defs>
        <path id="DejaVuSans-34" d="M 2419 4116 
L 825 1625 
L 2419 1625 
L 2419 4116 
z
M 2253 4666 
L 3047 4666 
L 3047 1625 
L 3713 1625 
L 3713 1100 
L 3047 1100 
L 3047 0 
L 2419 0 
L 2419 1100 
L 313 1100 
L 313 1709 
L 2253 4666 
z
" transform="scale(0.015625)"/>
       </defs>
       <use xlink:href="#DejaVuSans-Oblique-3bb" transform="translate(0 0.015625)"/>
       <use xlink:href="#DejaVuSans-34" transform="translate(59.179688 -16.390625) scale(0.7)"/>
      </g>
     </g>
    </g>
    <g id="xtick_5">
     <g id="line2d_9">
      <path d="M 183.132187 301.161675 
L 183.132187 35.049675 
" clip-path="url(#pa7f6a23c97)" style="fill: none; stroke: #b0b0b0; stroke-opacity: 0.45; stroke-width: 0.8; stroke-linecap: square"/>
     </g>
     <g id="line2d_10">
      <g>
       <use xlink:href="#m8851f4b209" x="183.132187" y="301.161675" style="stroke: #000000; stroke-width: 0.8"/>
      </g>
     </g>
     <g id="text_5">
      <!-- $\lambda_5$ -->
      <g transform="translate(173.502187 321.838862) scale(0.18 -0.18)">
       <defs>
        <path id="DejaVuSans-35" d="M 691 4666 
L 3169 4666 
L 3169 4134 
L 1269 4134 
L 1269 2991 
Q 1406 3038 1543 3061 
Q 1681 3084 1819 3084 
Q 2600 3084 3056 2656 
Q 3513 2228 3513 1497 
Q 3513 744 3044 326 
Q 2575 -91 1722 -91 
Q 1428 -91 1123 -41 
Q 819 9 494 109 
L 494 744 
Q 775 591 1075 516 
Q 1375 441 1709 441 
Q 2250 441 2565 725 
Q 2881 1009 2881 1497 
Q 2881 1984 2565 2268 
Q 2250 2553 1709 2553 
Q 1456 2553 1204 2497 
Q 953 2441 691 2322 
L 691 4666 
z
" transform="scale(0.015625)"/>
       </defs>
       <use xlink:href="#DejaVuSans-Oblique-3bb" transform="translate(0 0.015625)"/>
       <use xlink:href="#DejaVuSans-35" transform="translate(59.179688 -16.390625) scale(0.7)"/>
      </g>
     </g>
    </g>
    <g id="xtick_6">
     <g id="line2d_11">
      <path d="M 212.892188 301.161675 
L 212.892188 35.049675 
" clip-path="url(#pa7f6a23c97)" style="fill: none; stroke: #b0b0b0; stroke-opacity: 0.45; stroke-width: 0.8; stroke-linecap: square"/>
     </g>
     <g id="line2d_12">
      <g>
       <use xlink:href="#m8851f4b209" x="212.892188" y="301.161675" style="stroke: #000000; stroke-width: 0.8"/>
      </g>
     </g>
     <g id="text_6">
      <!-- $\lambda_6$ -->
      <g transform="translate(203.262188 321.838862) scale(0.18 -0.18)">
       <defs>
        <path id="DejaVuSans-36" d="M 2113 2584 
Q 1688 2584 1439 2293 
Q 1191 2003 1191 1497 
Q 1191 994 1439 701 
Q 1688 409 2113 409 
Q 2538 409 2786 701 
Q 3034 994 3034 1497 
Q 3034 2003 2786 2293 
Q 2538 2584 2113 2584 
z
M 3366 4563 
L 3366 3988 
Q 3128 4100 2886 4159 
Q 2644 4219 2406 4219 
Q 1781 4219 1451 3797 
Q 1122 3375 1075 2522 
Q 1259 2794 1537 2939 
Q 1816 3084 2150 3084 
Q 2853 3084 3261 2657 
Q 3669 2231 3669 1497 
Q 3669 778 3244 343 
Q 2819 -91 2113 -91 
Q 1303 -91 875 529 
Q 447 1150 447 2328 
Q 447 3434 972 4092 
Q 1497 4750 2381 4750 
Q 2619 4750 2861 4703 
Q 3103 4656 3366 4563 
z
" transform="scale(0.015625)"/>
       </defs>
       <use xlink:href="#DejaVuSans-Oblique-3bb" transform="translate(0 0.015625)"/>
       <use xlink:href="#DejaVuSans-36" transform="translate(59.179688 -16.390625) scale(0.7)"/>
      </g>
     </g>
    </g>
    <g id="xtick_7">
     <g id="line2d_13">
      <path d="M 242.652187 301.161675 
L 242.652187 35.049675 
" clip-path="url(#pa7f6a23c97)" style="fill: none; stroke: #b0b0b0; stroke-opacity: 0.45; stroke-width: 0.8; stroke-linecap: square"/>
     </g>
     <g id="line2d_14">
      <g>
       <use xlink:href="#m8851f4b209" x="242.652187" y="301.161675" style="stroke: #000000; stroke-width: 0.8"/>
      </g>
     </g>
     <g id="text_7">
      <!-- $\lambda_7$ -->
      <g transform="translate(233.022188 321.838862) scale(0.18 -0.18)">
       <defs>
        <path id="DejaVuSans-37" d="M 525 4666 
L 3525 4666 
L 3525 4397 
L 1831 0 
L 1172 0 
L 2766 4134 
L 525 4134 
L 525 4666 
z
" transform="scale(0.015625)"/>
       </defs>
       <use xlink:href="#DejaVuSans-Oblique-3bb" transform="translate(0 0.015625)"/>
       <use xlink:href="#DejaVuSans-37" transform="translate(59.179688 -16.390625) scale(0.7)"/>
      </g>
     </g>
    </g>
    <g id="xtick_8">
     <g id="line2d_15">
      <path d="M 272.412188 301.161675 
L 272.412188 35.049675 
" clip-path="url(#pa7f6a23c97)" style="fill: none; stroke: #b0b0b0; stroke-opacity: 0.45; stroke-width: 0.8; stroke-linecap: square"/>
     </g>
     <g id="line2d_16">
      <g>
       <use xlink:href="#m8851f4b209" x="272.412188" y="301.161675" style="stroke: #000000; stroke-width: 0.8"/>
      </g>
     </g>
     <g id="text_8">
      <!-- $\lambda_8$ -->
      <g transform="translate(262.782188 321.838862) scale(0.18 -0.18)">
       <defs>
        <path id="DejaVuSans-38" d="M 2034 2216 
Q 1584 2216 1326 1975 
Q 1069 1734 1069 1313 
Q 1069 891 1326 650 
Q 1584 409 2034 409 
Q 2484 409 2743 651 
Q 3003 894 3003 1313 
Q 3003 1734 2745 1975 
Q 2488 2216 2034 2216 
z
M 1403 2484 
Q 997 2584 770 2862 
Q 544 3141 544 3541 
Q 544 4100 942 4425 
Q 1341 4750 2034 4750 
Q 2731 4750 3128 4425 
Q 3525 4100 3525 3541 
Q 3525 3141 3298 2862 
Q 3072 2584 2669 2484 
Q 3125 2378 3379 2068 
Q 3634 1759 3634 1313 
Q 3634 634 3220 271 
Q 2806 -91 2034 -91 
Q 1263 -91 848 271 
Q 434 634 434 1313 
Q 434 1759 690 2068 
Q 947 2378 1403 2484 
z
M 1172 3481 
Q 1172 3119 1398 2916 
Q 1625 2713 2034 2713 
Q 2441 2713 2670 2916 
Q 2900 3119 2900 3481 
Q 2900 3844 2670 4047 
Q 2441 4250 2034 4250 
Q 1625 4250 1398 4047 
Q 1172 3844 1172 3481 
z
" transform="scale(0.015625)"/>
       </defs>
       <use xlink:href="#DejaVuSans-Oblique-3bb" transform="translate(0 0.015625)"/>
       <use xlink:href="#DejaVuSans-38" transform="translate(59.179688 -16.390625) scale(0.7)"/>
      </g>
     </g>
    </g>
    <g id="xtick_9">
     <g id="line2d_17">
      <path d="M 302.172188 301.161675 
L 302.172188 35.049675 
" clip-path="url(#pa7f6a23c97)" style="fill: none; stroke: #b0b0b0; stroke-opacity: 0.45; stroke-width: 0.8; stroke-linecap: square"/>
     </g>
     <g id="line2d_18">
      <g>
       <use xlink:href="#m8851f4b209" x="302.172188" y="301.161675" style="stroke: #000000; stroke-width: 0.8"/>
      </g>
     </g>
     <g id="text_9">
      <!-- $\lambda_9$ -->
      <g transform="translate(292.542188 321.838862) scale(0.18 -0.18)">
       <defs>
        <path id="DejaVuSans-39" d="M 703 97 
L 703 672 
Q 941 559 1184 500 
Q 1428 441 1663 441 
Q 2288 441 2617 861 
Q 2947 1281 2994 2138 
Q 2813 1869 2534 1725 
Q 2256 1581 1919 1581 
Q 1219 1581 811 2004 
Q 403 2428 403 3163 
Q 403 3881 828 4315 
Q 1253 4750 1959 4750 
Q 2769 4750 3195 4129 
Q 3622 3509 3622 2328 
Q 3622 1225 3098 567 
Q 2575 -91 1691 -91 
Q 1453 -91 1209 -44 
Q 966 3 703 97 
z
M 1959 2075 
Q 2384 2075 2632 2365 
Q 2881 2656 2881 3163 
Q 2881 3666 2632 3958 
Q 2384 4250 1959 4250 
Q 1534 4250 1286 3958 
Q 1038 3666 1038 3163 
Q 1038 2656 1286 2365 
Q 1534 2075 1959 2075 
z
" transform="scale(0.015625)"/>
       </defs>
       <use xlink:href="#DejaVuSans-Oblique-3bb" transform="translate(0 0.015625)"/>
       <use xlink:href="#DejaVuSans-39" transform="translate(59.179688 -16.390625) scale(0.7)"/>
      </g>
     </g>
    </g>
    <g id="xtick_10">
     <g id="line2d_19">
      <path d="M 331.932187 301.161675 
L 331.932187 35.049675 
" clip-path="url(#pa7f6a23c97)" style="fill: none; stroke: #b0b0b0; stroke-opacity: 0.45; stroke-width: 0.8; stroke-linecap: square"/>
     </g>
     <g id="line2d_20">
      <g>
       <use xlink:href="#m8851f4b209" x="331.932187" y="301.161675" style="stroke: #000000; stroke-width: 0.8"/>
      </g>
     </g>
     <g id="text_10">
      <!-- $\lambda_{10}$ -->
      <g transform="translate(318.342188 321.838862) scale(0.18 -0.18)">
       <defs>
        <path id="DejaVuSans-30" d="M 2034 4250 
Q 1547 4250 1301 3770 
Q 1056 3291 1056 2328 
Q 1056 1369 1301 889 
Q 1547 409 2034 409 
Q 2525 409 2770 889 
Q 3016 1369 3016 2328 
Q 3016 3291 2770 3770 
Q 2525 4250 2034 4250 
z
M 2034 4750 
Q 2819 4750 3233 4129 
Q 3647 3509 3647 2328 
Q 3647 1150 3233 529 
Q 2819 -91 2034 -91 
Q 1250 -91 836 529 
Q 422 1150 422 2328 
Q 422 3509 836 4129 
Q 1250 4750 2034 4750 
z
" transform="scale(0.015625)"/>
       </defs>
       <use xlink:href="#DejaVuSans-Oblique-3bb" transform="translate(0 0.015625)"/>
       <use xlink:href="#DejaVuSans-31" transform="translate(59.179688 -16.390625) scale(0.7)"/>
       <use xlink:href="#DejaVuSans-30" transform="translate(103.71582 -16.390625) scale(0.7)"/>
      </g>
     </g>
    </g>
    <g id="xtick_11">
     <g id="line2d_21">
      <path d="M 361.692187 301.161675 
L 361.692187 35.049675 
" clip-path="url(#pa7f6a23c97)" style="fill: none; stroke: #b0b0b0; stroke-opacity: 0.45; stroke-width: 0.8; stroke-linecap: square"/>
     </g>
     <g id="line2d_22">
      <g>
       <use xlink:href="#m8851f4b209" x="361.692187" y="301.161675" style="stroke: #000000; stroke-width: 0.8"/>
      </g>
     </g>
     <g id="text_11">
      <!-- $\lambda_{11}$ -->
      <g transform="translate(348.102188 321.838862) scale(0.18 -0.18)">
       <use xlink:href="#DejaVuSans-Oblique-3bb" transform="translate(0 0.015625)"/>
       <use xlink:href="#DejaVuSans-31" transform="translate(59.179688 -16.390625) scale(0.7)"/>
       <use xlink:href="#DejaVuSans-31" transform="translate(103.71582 -16.390625) scale(0.7)"/>
      </g>
     </g>
    </g>
    <g id="xtick_12">
     <g id="line2d_23">
      <path d="M 391.452188 301.161675 
L 391.452188 35.049675 
" clip-path="url(#pa7f6a23c97)" style="fill: none; stroke: #b0b0b0; stroke-opacity: 0.45; stroke-width: 0.8; stroke-linecap: square"/>
     </g>
     <g id="line2d_24">
      <g>
       <use xlink:href="#m8851f4b209" x="391.452188" y="301.161675" style="stroke: #000000; stroke-width: 0.8"/>
      </g>
     </g>
     <g id="text_12">
      <!-- $\lambda_{12}$ -->
      <g transform="translate(377.862188 321.838862) scale(0.18 -0.18)">
       <use xlink:href="#DejaVuSans-Oblique-3bb" transform="translate(0 0.015625)"/>
       <use xlink:href="#DejaVuSans-31" transform="translate(59.179688 -16.390625) scale(0.7)"/>
       <use xlink:href="#DejaVuSans-32" transform="translate(103.71582 -16.390625) scale(0.7)"/>
      </g>
     </g>
    </g>
    <g id="xtick_13">
     <g id="line2d_25">
      <path d="M 421.212188 301.161675 
L 421.212188 35.049675 
" clip-path="url(#pa7f6a23c97)" style="fill: none; stroke: #b0b0b0; stroke-opacity: 0.45; stroke-width: 0.8; stroke-linecap: square"/>
     </g>
     <g id="line2d_26">
      <g>
       <use xlink:href="#m8851f4b209" x="421.212188" y="301.161675" style="stroke: #000000; stroke-width: 0.8"/>
      </g>
     </g>
     <g id="text_13">
      <!-- $\lambda_{13}$ -->
      <g transform="translate(407.622188 321.838862) scale(0.18 -0.18)">
       <use xlink:href="#DejaVuSans-Oblique-3bb" transform="translate(0 0.015625)"/>
       <use xlink:href="#DejaVuSans-31" transform="translate(59.179688 -16.390625) scale(0.7)"/>
       <use xlink:href="#DejaVuSans-33" transform="translate(103.71582 -16.390625) scale(0.7)"/>
      </g>
     </g>
    </g>
    <g id="text_14">
     <!-- Eigenvalues -->
     <g transform="translate(182.19125 344.779175) scale(0.2 -0.2)">
      <defs>
       <path id="DejaVuSans-45" d="M 628 4666 
L 3578 4666 
L 3578 4134 
L 1259 4134 
L 1259 2753 
L 3481 2753 
L 3481 2222 
L 1259 2222 
L 1259 531 
L 3634 531 
L 3634 0 
L 628 0 
L 628 4666 
z
" transform="scale(0.015625)"/>
       <path id="DejaVuSans-69" d="M 603 3500 
L 1178 3500 
L 1178 0 
L 603 0 
L 603 3500 
z
M 603 4863 
L 1178 4863 
L 1178 4134 
L 603 4134 
L 603 4863 
z
" transform="scale(0.015625)"/>
       <path id="DejaVuSans-67" d="M 2906 1791 
Q 2906 2416 2648 2759 
Q 2391 3103 1925 3103 
Q 1463 3103 1205 2759 
Q 947 2416 947 1791 
Q 947 1169 1205 825 
Q 1463 481 1925 481 
Q 2391 481 2648 825 
Q 2906 1169 2906 1791 
z
M 3481 434 
Q 3481 -459 3084 -895 
Q 2688 -1331 1869 -1331 
Q 1566 -1331 1297 -1286 
Q 1028 -1241 775 -1147 
L 775 -588 
Q 1028 -725 1275 -790 
Q 1522 -856 1778 -856 
Q 2344 -856 2625 -561 
Q 2906 -266 2906 331 
L 2906 616 
Q 2728 306 2450 153 
Q 2172 0 1784 0 
Q 1141 0 747 490 
Q 353 981 353 1791 
Q 353 2603 747 3093 
Q 1141 3584 1784 3584 
Q 2172 3584 2450 3431 
Q 2728 3278 2906 2969 
L 2906 3500 
L 3481 3500 
L 3481 434 
z
" transform="scale(0.015625)"/>
       <path id="DejaVuSans-65" d="M 3597 1894 
L 3597 1613 
L 953 1613 
Q 991 1019 1311 708 
Q 1631 397 2203 397 
Q 2534 397 2845 478 
Q 3156 559 3463 722 
L 3463 178 
Q 3153 47 2828 -22 
Q 2503 -91 2169 -91 
Q 1331 -91 842 396 
Q 353 884 353 1716 
Q 353 2575 817 3079 
Q 1281 3584 2069 3584 
Q 2775 3584 3186 3129 
Q 3597 2675 3597 1894 
z
M 3022 2063 
Q 3016 2534 2758 2815 
Q 2500 3097 2075 3097 
Q 1594 3097 1305 2825 
Q 1016 2553 972 2059 
L 3022 2063 
z
" transform="scale(0.015625)"/>
       <path id="DejaVuSans-6e" d="M 3513 2113 
L 3513 0 
L 2938 0 
L 2938 2094 
Q 2938 2591 2744 2837 
Q 2550 3084 2163 3084 
Q 1697 3084 1428 2787 
Q 1159 2491 1159 1978 
L 1159 0 
L 581 0 
L 581 3500 
L 1159 3500 
L 1159 2956 
Q 1366 3272 1645 3428 
Q 1925 3584 2291 3584 
Q 2894 3584 3203 3211 
Q 3513 2838 3513 2113 
z
" transform="scale(0.015625)"/>
       <path id="DejaVuSans-76" d="M 191 3500 
L 800 3500 
L 1894 563 
L 2988 3500 
L 3597 3500 
L 2284 0 
L 1503 0 
L 191 3500 
z
" transform="scale(0.015625)"/>
       <path id="DejaVuSans-61" d="M 2194 1759 
Q 1497 1759 1228 1600 
Q 959 1441 959 1056 
Q 959 750 1161 570 
Q 1363 391 1709 391 
Q 2188 391 2477 730 
Q 2766 1069 2766 1631 
L 2766 1759 
L 2194 1759 
z
M 3341 1997 
L 3341 0 
L 2766 0 
L 2766 531 
Q 2569 213 2275 61 
Q 1981 -91 1556 -91 
Q 1019 -91 701 211 
Q 384 513 384 1019 
Q 384 1609 779 1909 
Q 1175 2209 1959 2209 
L 2766 2209 
L 2766 2266 
Q 2766 2663 2505 2880 
Q 2244 3097 1772 3097 
Q 1472 3097 1187 3025 
Q 903 2953 641 2809 
L 641 3341 
Q 956 3463 1253 3523 
Q 1550 3584 1831 3584 
Q 2591 3584 2966 3190 
Q 3341 2797 3341 1997 
z
" transform="scale(0.015625)"/>
       <path id="DejaVuSans-6c" d="M 603 4863 
L 1178 4863 
L 1178 0 
L 603 0 
L 603 4863 
z
" transform="scale(0.015625)"/>
       <path id="DejaVuSans-75" d="M 544 1381 
L 544 3500 
L 1119 3500 
L 1119 1403 
Q 1119 906 1312 657 
Q 1506 409 1894 409 
Q 2359 409 2629 706 
Q 2900 1003 2900 1516 
L 2900 3500 
L 3475 3500 
L 3475 0 
L 2900 0 
L 2900 538 
Q 2691 219 2414 64 
Q 2138 -91 1772 -91 
Q 1169 -91 856 284 
Q 544 659 544 1381 
z
M 1991 3584 
L 1991 3584 
z
" transform="scale(0.015625)"/>
       <path id="DejaVuSans-73" d="M 2834 3397 
L 2834 2853 
Q 2591 2978 2328 3040 
Q 2066 3103 1784 3103 
Q 1356 3103 1142 2972 
Q 928 2841 928 2578 
Q 928 2378 1081 2264 
Q 1234 2150 1697 2047 
L 1894 2003 
Q 2506 1872 2764 1633 
Q 3022 1394 3022 966 
Q 3022 478 2636 193 
Q 2250 -91 1575 -91 
Q 1294 -91 989 -36 
Q 684 19 347 128 
L 347 722 
Q 666 556 975 473 
Q 1284 391 1588 391 
Q 1994 391 2212 530 
Q 2431 669 2431 922 
Q 2431 1156 2273 1281 
Q 2116 1406 1581 1522 
L 1381 1569 
Q 847 1681 609 1914 
Q 372 2147 372 2553 
Q 372 3047 722 3315 
Q 1072 3584 1716 3584 
Q 2034 3584 2315 3537 
Q 2597 3491 2834 3397 
z
" transform="scale(0.015625)"/>
      </defs>
      <use xlink:href="#DejaVuSans-45"/>
      <use xlink:href="#DejaVuSans-69" x="63.183594"/>
      <use xlink:href="#DejaVuSans-67" x="90.966797"/>
      <use xlink:href="#DejaVuSans-65" x="154.443359"/>
      <use xlink:href="#DejaVuSans-6e" x="215.966797"/>
      <use xlink:href="#DejaVuSans-76" x="279.345703"/>
      <use xlink:href="#DejaVuSans-61" x="338.525391"/>
      <use xlink:href="#DejaVuSans-6c" x="399.804688"/>
      <use xlink:href="#DejaVuSans-75" x="427.587891"/>
      <use xlink:href="#DejaVuSans-65" x="490.966797"/>
      <use xlink:href="#DejaVuSans-73" x="552.490234"/>
     </g>
    </g>
   </g>
   <g id="matplotlib.axis_2">
    <g id="ytick_1">
     <g id="line2d_27">
      <path d="M 64.092188 280.021361 
L 421.212188 280.021361 
" clip-path="url(#pa7f6a23c97)" style="fill: none; stroke: #b0b0b0; stroke-opacity: 0.45; stroke-width: 0.8; stroke-linecap: square"/>
     </g>
     <g id="line2d_28">
      <defs>
       <path id="mf184a26f13" d="M 0 0 
L -3.5 0 
" style="stroke: #000000; stroke-width: 0.8"/>
      </defs>
      <g>
       <use xlink:href="#mf184a26f13" x="64.092188" y="280.021361" style="stroke: #000000; stroke-width: 0.8"/>
      </g>
     </g>
     <g id="text_15">
      <!-- −4 -->
      <g transform="translate(30.55625 286.859955) scale(0.18 -0.18)">
       <defs>
        <path id="DejaVuSans-2212" d="M 678 2272 
L 4684 2272 
L 4684 1741 
L 678 1741 
L 678 2272 
z
" transform="scale(0.015625)"/>
       </defs>
       <use xlink:href="#DejaVuSans-2212"/>
       <use xlink:href="#DejaVuSans-34" x="83.789062"/>
      </g>
     </g>
    </g>
    <g id="ytick_2">
     <g id="line2d_29">
      <path d="M 64.092188 248.71013 
L 421.212188 248.71013 
" clip-path="url(#pa7f6a23c97)" style="fill: none; stroke: #b0b0b0; stroke-opacity: 0.45; stroke-width: 0.8; stroke-linecap: square"/>
     </g>
     <g id="line2d_30">
      <g>
       <use xlink:href="#mf184a26f13" x="64.092188" y="248.71013" style="stroke: #000000; stroke-width: 0.8"/>
      </g>
     </g>
     <g id="text_16">
      <!-- −2 -->
      <g transform="translate(30.55625 255.548724) scale(0.18 -0.18)">
       <use xlink:href="#DejaVuSans-2212"/>
       <use xlink:href="#DejaVuSans-32" x="83.789062"/>
      </g>
     </g>
    </g>
    <g id="ytick_3">
     <g id="line2d_31">
      <path d="M 64.092188 217.3989 
L 421.212188 217.3989 
" clip-path="url(#pa7f6a23c97)" style="fill: none; stroke: #b0b0b0; stroke-opacity: 0.45; stroke-width: 0.8; stroke-linecap: square"/>
     </g>
     <g id="line2d_32">
      <g>
       <use xlink:href="#mf184a26f13" x="64.092188" y="217.3989" style="stroke: #000000; stroke-width: 0.8"/>
      </g>
     </g>
     <g id="text_17">
      <!-- 0 -->
      <g transform="translate(45.639688 224.237493) scale(0.18 -0.18)">
       <use xlink:href="#DejaVuSans-30"/>
      </g>
     </g>
    </g>
    <g id="ytick_4">
     <g id="line2d_33">
      <path d="M 64.092188 186.087669 
L 421.212188 186.087669 
" clip-path="url(#pa7f6a23c97)" style="fill: none; stroke: #b0b0b0; stroke-opacity: 0.45; stroke-width: 0.8; stroke-linecap: square"/>
     </g>
     <g id="line2d_34">
      <g>
       <use xlink:href="#mf184a26f13" x="64.092188" y="186.087669" style="stroke: #000000; stroke-width: 0.8"/>
      </g>
     </g>
     <g id="text_18">
      <!-- 2 -->
      <g transform="translate(45.639688 192.926263) scale(0.18 -0.18)">
       <use xlink:href="#DejaVuSans-32"/>
      </g>
     </g>
    </g>
    <g id="ytick_5">
     <g id="line2d_35">
      <path d="M 64.092188 154.776438 
L 421.212188 154.776438 
" clip-path="url(#pa7f6a23c97)" style="fill: none; stroke: #b0b0b0; stroke-opacity: 0.45; stroke-width: 0.8; stroke-linecap: square"/>
     </g>
     <g id="line2d_36">
      <g>
       <use xlink:href="#mf184a26f13" x="64.092188" y="154.776438" style="stroke: #000000; stroke-width: 0.8"/>
      </g>
     </g>
     <g id="text_19">
      <!-- 4 -->
      <g transform="translate(45.639688 161.615032) scale(0.18 -0.18)">
       <use xlink:href="#DejaVuSans-34"/>
      </g>
     </g>
    </g>
    <g id="ytick_6">
     <g id="line2d_37">
      <path d="M 64.092188 123.465208 
L 421.212188 123.465208 
" clip-path="url(#pa7f6a23c97)" style="fill: none; stroke: #b0b0b0; stroke-opacity: 0.45; stroke-width: 0.8; stroke-linecap: square"/>
     </g>
     <g id="line2d_38">
      <g>
       <use xlink:href="#mf184a26f13" x="64.092188" y="123.465208" style="stroke: #000000; stroke-width: 0.8"/>
      </g>
     </g>
     <g id="text_20">
      <!-- 6 -->
      <g transform="translate(45.639688 130.303802) scale(0.18 -0.18)">
       <use xlink:href="#DejaVuSans-36"/>
      </g>
     </g>
    </g>
    <g id="ytick_7">
     <g id="line2d_39">
      <path d="M 64.092188 92.153977 
L 421.212188 92.153977 
" clip-path="url(#pa7f6a23c97)" style="fill: none; stroke: #b0b0b0; stroke-opacity: 0.45; stroke-width: 0.8; stroke-linecap: square"/>
     </g>
     <g id="line2d_40">
      <g>
       <use xlink:href="#mf184a26f13" x="64.092188" y="92.153977" style="stroke: #000000; stroke-width: 0.8"/>
      </g>
     </g>
     <g id="text_21">
      <!-- 8 -->
      <g transform="translate(45.639688 98.992571) scale(0.18 -0.18)">
       <use xlink:href="#DejaVuSans-38"/>
      </g>
     </g>
    </g>
    <g id="ytick_8">
     <g id="line2d_41">
      <path d="M 64.092188 60.842747 
L 421.212188 60.842747 
" clip-path="url(#pa7f6a23c97)" style="fill: none; stroke: #b0b0b0; stroke-opacity: 0.45; stroke-width: 0.8; stroke-linecap: square"/>
     </g>
     <g id="line2d_42">
      <g>
       <use xlink:href="#mf184a26f13" x="64.092188" y="60.842747" style="stroke: #000000; stroke-width: 0.8"/>
      </g>
     </g>
     <g id="text_22">
      <!-- 10 -->
      <g transform="translate(34.187188 67.68134) scale(0.18 -0.18)">
       <use xlink:href="#DejaVuSans-31"/>
       <use xlink:href="#DejaVuSans-30" x="63.623047"/>
      </g>
     </g>
    </g>
    <g id="text_23">
     <!-- Value -->
     <g transform="translate(22.396875 208.873775) rotate(-90) scale(0.2 -0.2)">
      <defs>
       <path id="DejaVuSans-56" d="M 1831 0 
L 50 4666 
L 709 4666 
L 2188 738 
L 3669 4666 
L 4325 4666 
L 2547 0 
L 1831 0 
z
" transform="scale(0.015625)"/>
      </defs>
      <use xlink:href="#DejaVuSans-56"/>
      <use xlink:href="#DejaVuSans-61" x="60.658203"/>
      <use xlink:href="#DejaVuSans-6c" x="121.9375"/>
      <use xlink:href="#DejaVuSans-75" x="149.720703"/>
      <use xlink:href="#DejaVuSans-65" x="213.099609"/>
     </g>
    </g>
   </g>
   <g id="line2d_43">
    <path d="M 64.092188 48.622476 
L 93.852188 72.138782 
L 123.612188 80.724583 
L 153.372187 85.898836 
L 183.132187 89.740167 
L 212.892188 94.547451 
L 242.652187 97.564072 
L 272.412188 103.248617 
L 302.172188 110.659133 
L 331.932187 119.166891 
L 361.692187 133.431295 
L 391.452188 288.299764 
L 421.212188 287.508756 
" clip-path="url(#pa7f6a23c97)" style="fill: none; stroke: #1f77b4; stroke-width: 3; stroke-linecap: square"/>
    <defs>
     <path id="me8b58b94db" d="M 0 7 
C 1.856422 7 3.637059 6.262436 4.949747 4.949747 
C 6.262436 3.637059 7 1.856422 7 0 
C 7 -1.856422 6.262436 -3.637059 4.949747 -4.949747 
C 3.637059 -6.262436 1.856422 -7 0 -7 
C -1.856422 -7 -3.637059 -6.262436 -4.949747 -4.949747 
C -6.262436 -3.637059 -7 -1.856422 -7 0 
C -7 1.856422 -6.262436 3.637059 -4.949747 4.949747 
C -3.637059 6.262436 -1.856422 7 0 7 
z
" style="stroke: #1f77b4; stroke-width: 3"/>
    </defs>
    <g clip-path="url(#pa7f6a23c97)">
     <use xlink:href="#me8b58b94db" x="64.092188" y="48.622476" style="fill-opacity: 0; stroke: #1f77b4; stroke-width: 3"/>
     <use xlink:href="#me8b58b94db" x="93.852188" y="72.138782" style="fill-opacity: 0; stroke: #1f77b4; stroke-width: 3"/>
     <use xlink:href="#me8b58b94db" x="123.612188" y="80.724583" style="fill-opacity: 0; stroke: #1f77b4; stroke-width: 3"/>
     <use xlink:href="#me8b58b94db" x="153.372187" y="85.898836" style="fill-opacity: 0; stroke: #1f77b4; stroke-width: 3"/>
     <use xlink:href="#me8b58b94db" x="183.132187" y="89.740167" style="fill-opacity: 0; stroke: #1f77b4; stroke-width: 3"/>
     <use xlink:href="#me8b58b94db" x="212.892188" y="94.547451" style="fill-opacity: 0; stroke: #1f77b4; stroke-width: 3"/>
     <use xlink:href="#me8b58b94db" x="242.652187" y="97.564072" style="fill-opacity: 0; stroke: #1f77b4; stroke-width: 3"/>
     <use xlink:href="#me8b58b94db" x="272.412188" y="103.248617" style="fill-opacity: 0; stroke: #1f77b4; stroke-width: 3"/>
     <use xlink:href="#me8b58b94db" x="302.172188" y="110.659133" style="fill-opacity: 0; stroke: #1f77b4; stroke-width: 3"/>
     <use xlink:href="#me8b58b94db" x="331.932187" y="119.166891" style="fill-opacity: 0; stroke: #1f77b4; stroke-width: 3"/>
     <use xlink:href="#me8b58b94db" x="361.692187" y="133.431295" style="fill-opacity: 0; stroke: #1f77b4; stroke-width: 3"/>
     <use xlink:href="#me8b58b94db" x="391.452188" y="288.299764" style="fill-opacity: 0; stroke: #1f77b4; stroke-width: 3"/>
     <use xlink:href="#me8b58b94db" x="421.212188" y="287.508756" style="fill-opacity: 0; stroke: #1f77b4; stroke-width: 3"/>
    </g>
   </g>
   <g id="line2d_44">
    <path d="M 64.092188 48.823708 
L 93.852188 81.957342 
L 123.612188 85.737118 
L 153.372187 91.291839 
L 183.132187 96.550798 
L 212.892188 99.800648 
L 242.652187 104.859224 
L 272.412188 108.933179 
L 302.172188 117.593846 
L 331.932187 126.181332 
L 361.692187 135.801067 
L 391.452188 288.039514 
L 421.212188 286.77774 
" clip-path="url(#pa7f6a23c97)" style="fill: none; stroke-dasharray: 3,4.95; stroke-dashoffset: 0; stroke: #ff7f0e; stroke-width: 3"/>
    <defs>
     <path id="mf7d84ee690" d="M -7 7 
L 7 7 
L 7 -7 
L -7 -7 
z
" style="stroke: #ff7f0e; stroke-width: 3; stroke-linejoin: miter"/>
    </defs>
    <g clip-path="url(#pa7f6a23c97)">
     <use xlink:href="#mf7d84ee690" x="64.092188" y="48.823708" style="fill-opacity: 0; stroke: #ff7f0e; stroke-width: 3; stroke-linejoin: miter"/>
     <use xlink:href="#mf7d84ee690" x="93.852188" y="81.957342" style="fill-opacity: 0; stroke: #ff7f0e; stroke-width: 3; stroke-linejoin: miter"/>
     <use xlink:href="#mf7d84ee690" x="123.612188" y="85.737118" style="fill-opacity: 0; stroke: #ff7f0e; stroke-width: 3; stroke-linejoin: miter"/>
     <use xlink:href="#mf7d84ee690" x="153.372187" y="91.291839" style="fill-opacity: 0; stroke: #ff7f0e; stroke-width: 3; stroke-linejoin: miter"/>
     <use xlink:href="#mf7d84ee690" x="183.132187" y="96.550798" style="fill-opacity: 0; stroke: #ff7f0e; stroke-width: 3; stroke-linejoin: miter"/>
     <use xlink:href="#mf7d84ee690" x="212.892188" y="99.800648" style="fill-opacity: 0; stroke: #ff7f0e; stroke-width: 3; stroke-linejoin: miter"/>
     <use xlink:href="#mf7d84ee690" x="242.652187" y="104.859224" style="fill-opacity: 0; stroke: #ff7f0e; stroke-width: 3; stroke-linejoin: miter"/>
     <use xlink:href="#mf7d84ee690" x="272.412188" y="108.933179" style="fill-opacity: 0; stroke: #ff7f0e; stroke-width: 3; stroke-linejoin: miter"/>
     <use xlink:href="#mf7d84ee690" x="302.172188" y="117.593846" style="fill-opacity: 0; stroke: #ff7f0e; stroke-width: 3; stroke-linejoin: miter"/>
     <use xlink:href="#mf7d84ee690" x="331.932187" y="126.181332" style="fill-opacity: 0; stroke: #ff7f0e; stroke-width: 3; stroke-linejoin: miter"/>
     <use xlink:href="#mf7d84ee690" x="361.692187" y="135.801067" style="fill-opacity: 0; stroke: #ff7f0e; stroke-width: 3; stroke-linejoin: miter"/>
     <use xlink:href="#mf7d84ee690" x="391.452188" y="288.039514" style="fill-opacity: 0; stroke: #ff7f0e; stroke-width: 3; stroke-linejoin: miter"/>
     <use xlink:href="#mf7d84ee690" x="421.212188" y="286.77774" style="fill-opacity: 0; stroke: #ff7f0e; stroke-width: 3; stroke-linejoin: miter"/>
    </g>
   </g>
   <g id="line2d_45">
    <path d="M 64.092188 47.145675 
L 93.852188 82.797478 
L 123.612188 83.231553 
L 153.372187 88.374928 
L 183.132187 99.367091 
L 212.892188 101.773663 
L 242.652187 102.728055 
L 272.412188 107.52578 
L 302.172188 114.068064 
L 331.932187 128.90099 
L 361.692187 132.354479 
L 391.452188 289.065675 
L 421.212188 287.649614 
" clip-path="url(#pa7f6a23c97)" style="fill: none; stroke-dasharray: 19.2,4.8,3,4.8; stroke-dashoffset: 0; stroke: #2ca02c; stroke-width: 3"/>
    <defs>
     <path id="m8b582f4a7c" d="M -7 7 
L 7 -7 
M -7 -7 
L 7 7 
" style="stroke: #2ca02c; stroke-width: 3"/>
    </defs>
    <g clip-path="url(#pa7f6a23c97)">
     <use xlink:href="#m8b582f4a7c" x="64.092188" y="47.145675" style="fill-opacity: 0; stroke: #2ca02c; stroke-width: 3"/>
     <use xlink:href="#m8b582f4a7c" x="93.852188" y="82.797478" style="fill-opacity: 0; stroke: #2ca02c; stroke-width: 3"/>
     <use xlink:href="#m8b582f4a7c" x="123.612188" y="83.231553" style="fill-opacity: 0; stroke: #2ca02c; stroke-width: 3"/>
     <use xlink:href="#m8b582f4a7c" x="153.372187" y="88.374928" style="fill-opacity: 0; stroke: #2ca02c; stroke-width: 3"/>
     <use xlink:href="#m8b582f4a7c" x="183.132187" y="99.367091" style="fill-opacity: 0; stroke: #2ca02c; stroke-width: 3"/>
     <use xlink:href="#m8b582f4a7c" x="212.892188" y="101.773663" style="fill-opacity: 0; stroke: #2ca02c; stroke-width: 3"/>
     <use xlink:href="#m8b582f4a7c" x="242.652187" y="102.728055" style="fill-opacity: 0; stroke: #2ca02c; stroke-width: 3"/>
     <use xlink:href="#m8b582f4a7c" x="272.412188" y="107.52578" style="fill-opacity: 0; stroke: #2ca02c; stroke-width: 3"/>
     <use xlink:href="#m8b582f4a7c" x="302.172188" y="114.068064" style="fill-opacity: 0; stroke: #2ca02c; stroke-width: 3"/>
     <use xlink:href="#m8b582f4a7c" x="331.932187" y="128.90099" style="fill-opacity: 0; stroke: #2ca02c; stroke-width: 3"/>
     <use xlink:href="#m8b582f4a7c" x="361.692187" y="132.354479" style="fill-opacity: 0; stroke: #2ca02c; stroke-width: 3"/>
     <use xlink:href="#m8b582f4a7c" x="391.452188" y="289.065675" style="fill-opacity: 0; stroke: #2ca02c; stroke-width: 3"/>
     <use xlink:href="#m8b582f4a7c" x="421.212188" y="287.649614" style="fill-opacity: 0; stroke: #2ca02c; stroke-width: 3"/>
    </g>
   </g>
   <g id="patch_3">
    <path d="M 64.092188 301.161675 
L 64.092188 35.049675 
" style="fill: none; stroke: #000000; stroke-width: 0.8; stroke-linejoin: miter; stroke-linecap: square"/>
   </g>
   <g id="patch_4">
    <path d="M 421.212188 301.161675 
L 421.212188 35.049675 
" style="fill: none; stroke: #000000; stroke-width: 0.8; stroke-linejoin: miter; stroke-linecap: square"/>
   </g>
   <g id="patch_5">
    <path d="M 64.092188 301.161675 
L 421.212188 301.161675 
" style="fill: none; stroke: #000000; stroke-width: 0.8; stroke-linejoin: miter; stroke-linecap: square"/>
   </g>
   <g id="patch_6">
    <path d="M 64.092188 35.049675 
L 421.212188 35.049675 
" style="fill: none; stroke: #000000; stroke-width: 0.8; stroke-linejoin: miter; stroke-linecap: square"/>
   </g>
   <g id="text_24">
    <!-- $(N,T,L)$=(115,100,20) -->
    <g transform="translate(131.952188 22.396875) scale(0.2 -0.2)">
     <defs>
      <path id="DejaVuSans-28" d="M 1984 4856 
Q 1566 4138 1362 3434 
Q 1159 2731 1159 2009 
Q 1159 1288 1364 580 
Q 1569 -128 1984 -844 
L 1484 -844 
Q 1016 -109 783 600 
Q 550 1309 550 2009 
Q 550 2706 781 3412 
Q 1013 4119 1484 4856 
L 1984 4856 
z
" transform="scale(0.015625)"/>
      <path id="DejaVuSans-Oblique-4e" d="M 1081 4666 
L 1931 4666 
L 3219 666 
L 4000 4666 
L 4616 4666 
L 3706 0 
L 2853 0 
L 1569 4025 
L 788 0 
L 172 0 
L 1081 4666 
z
" transform="scale(0.015625)"/>
      <path id="DejaVuSans-2c" d="M 750 794 
L 1409 794 
L 1409 256 
L 897 -744 
L 494 -744 
L 750 256 
L 750 794 
z
" transform="scale(0.015625)"/>
      <path id="DejaVuSans-Oblique-54" d="M 378 4666 
L 4325 4666 
L 4225 4134 
L 2559 4134 
L 1759 0 
L 1125 0 
L 1925 4134 
L 275 4134 
L 378 4666 
z
" transform="scale(0.015625)"/>
      <path id="DejaVuSans-Oblique-4c" d="M 1075 4666 
L 1709 4666 
L 909 525 
L 3181 525 
L 3078 0 
L 172 0 
L 1075 4666 
z
" transform="scale(0.015625)"/>
      <path id="DejaVuSans-29" d="M 513 4856 
L 1013 4856 
Q 1481 4119 1714 3412 
Q 1947 2706 1947 2009 
Q 1947 1309 1714 600 
Q 1481 -109 1013 -844 
L 513 -844 
Q 928 -128 1133 580 
Q 1338 1288 1338 2009 
Q 1338 2731 1133 3434 
Q 928 4138 513 4856 
z
" transform="scale(0.015625)"/>
      <path id="DejaVuSans-3d" d="M 678 2906 
L 4684 2906 
L 4684 2381 
L 678 2381 
L 678 2906 
z
M 678 1631 
L 4684 1631 
L 4684 1100 
L 678 1100 
L 678 1631 
z
" transform="scale(0.015625)"/>
     </defs>
     <use xlink:href="#DejaVuSans-28" transform="translate(0 0.125)"/>
     <use xlink:href="#DejaVuSans-Oblique-4e" transform="translate(39.013672 0.125)"/>
     <use xlink:href="#DejaVuSans-2c" transform="translate(113.818359 0.125)"/>
     <use xlink:href="#DejaVuSans-Oblique-54" transform="translate(165.087891 0.125)"/>
     <use xlink:href="#DejaVuSans-2c" transform="translate(226.171875 0.125)"/>
     <use xlink:href="#DejaVuSans-Oblique-4c" transform="translate(277.441406 0.125)"/>
     <use xlink:href="#DejaVuSans-29" transform="translate(333.154297 0.125)"/>
     <use xlink:href="#DejaVuSans-3d" transform="translate(372.167969 0.125)"/>
     <use xlink:href="#DejaVuSans-28" transform="translate(455.957031 0.125)"/>
     <use xlink:href="#DejaVuSans-31" transform="translate(494.970703 0.125)"/>
     <use xlink:href="#DejaVuSans-31" transform="translate(558.59375 0.125)"/>
     <use xlink:href="#DejaVuSans-35" transform="translate(622.216797 0.125)"/>
     <use xlink:href="#DejaVuSans-2c" transform="translate(685.839844 0.125)"/>
     <use xlink:href="#DejaVuSans-31" transform="translate(717.626953 0.125)"/>
     <use xlink:href="#DejaVuSans-30" transform="translate(781.25 0.125)"/>
     <use xlink:href="#DejaVuSans-30" transform="translate(844.873047 0.125)"/>
     <use xlink:href="#DejaVuSans-2c" transform="translate(908.496094 0.125)"/>
     <use xlink:href="#DejaVuSans-32" transform="translate(940.283203 0.125)"/>
     <use xlink:href="#DejaVuSans-30" transform="translate(1003.90625 0.125)"/>
     <use xlink:href="#DejaVuSans-29" transform="translate(1067.529297 0.125)"/>
    </g>
   </g>
   <g id="legend_1">
    <g id="patch_7">
     <path d="M 76.692188 292.161675 
L 298.55625 292.161675 
Q 302.15625 292.161675 302.15625 288.561675 
L 302.15625 211.0998 
Q 302.15625 207.4998 298.55625 207.4998 
L 76.692188 207.4998 
Q 73.092188 207.4998 73.092188 211.0998 
L 73.092188 288.561675 
Q 73.092188 292.161675 76.692188 292.161675 
z
" style="fill: #ffffff; opacity: 0.8; stroke: #cccccc; stroke-linejoin: miter"/>
    </g>
    <g id="line2d_46">
     <path d="M 80.292188 222.076987 
L 98.292188 222.076987 
L 116.292188 222.076987 
" style="fill: none; stroke: #1f77b4; stroke-width: 3; stroke-linecap: square"/>
     <g>
      <use xlink:href="#me8b58b94db" x="98.292188" y="222.076987" style="fill-opacity: 0; stroke: #1f77b4; stroke-width: 3"/>
     </g>
    </g>
    <g id="text_25">
     <!-- Exact eigenvalues -->
     <g transform="translate(130.692188 228.376987) scale(0.18 -0.18)">
      <defs>
       <path id="DejaVuSans-78" d="M 3513 3500 
L 2247 1797 
L 3578 0 
L 2900 0 
L 1881 1375 
L 863 0 
L 184 0 
L 1544 1831 
L 300 3500 
L 978 3500 
L 1906 2253 
L 2834 3500 
L 3513 3500 
z
" transform="scale(0.015625)"/>
       <path id="DejaVuSans-63" d="M 3122 3366 
L 3122 2828 
Q 2878 2963 2633 3030 
Q 2388 3097 2138 3097 
Q 1578 3097 1268 2742 
Q 959 2388 959 1747 
Q 959 1106 1268 751 
Q 1578 397 2138 397 
Q 2388 397 2633 464 
Q 2878 531 3122 666 
L 3122 134 
Q 2881 22 2623 -34 
Q 2366 -91 2075 -91 
Q 1284 -91 818 406 
Q 353 903 353 1747 
Q 353 2603 823 3093 
Q 1294 3584 2113 3584 
Q 2378 3584 2631 3529 
Q 2884 3475 3122 3366 
z
" transform="scale(0.015625)"/>
       <path id="DejaVuSans-74" d="M 1172 4494 
L 1172 3500 
L 2356 3500 
L 2356 3053 
L 1172 3053 
L 1172 1153 
Q 1172 725 1289 603 
Q 1406 481 1766 481 
L 2356 481 
L 2356 0 
L 1766 0 
Q 1100 0 847 248 
Q 594 497 594 1153 
L 594 3053 
L 172 3053 
L 172 3500 
L 594 3500 
L 594 4494 
L 1172 4494 
z
" transform="scale(0.015625)"/>
       <path id="DejaVuSans-20" transform="scale(0.015625)"/>
      </defs>
      <use xlink:href="#DejaVuSans-45"/>
      <use xlink:href="#DejaVuSans-78" x="63.183594"/>
      <use xlink:href="#DejaVuSans-61" x="122.363281"/>
      <use xlink:href="#DejaVuSans-63" x="183.642578"/>
      <use xlink:href="#DejaVuSans-74" x="238.623047"/>
      <use xlink:href="#DejaVuSans-20" x="277.832031"/>
      <use xlink:href="#DejaVuSans-65" x="309.619141"/>
      <use xlink:href="#DejaVuSans-69" x="371.142578"/>
      <use xlink:href="#DejaVuSans-67" x="398.925781"/>
      <use xlink:href="#DejaVuSans-65" x="462.402344"/>
      <use xlink:href="#DejaVuSans-6e" x="523.925781"/>
      <use xlink:href="#DejaVuSans-76" x="587.304688"/>
      <use xlink:href="#DejaVuSans-61" x="646.484375"/>
      <use xlink:href="#DejaVuSans-6c" x="707.763672"/>
      <use xlink:href="#DejaVuSans-75" x="735.546875"/>
      <use xlink:href="#DejaVuSans-65" x="798.925781"/>
      <use xlink:href="#DejaVuSans-73" x="860.449219"/>
     </g>
    </g>
    <g id="line2d_47">
     <path d="M 80.292188 248.497612 
L 98.292188 248.497612 
L 116.292188 248.497612 
" style="fill: none; stroke-dasharray: 3,4.95; stroke-dashoffset: 0; stroke: #ff7f0e; stroke-width: 3"/>
     <g>
      <use xlink:href="#mf7d84ee690" x="98.292188" y="248.497612" style="fill-opacity: 0; stroke: #ff7f0e; stroke-width: 3; stroke-linejoin: miter"/>
     </g>
    </g>
    <g id="text_26">
     <!-- Average of DNPM -->
     <g transform="translate(130.692188 254.797612) scale(0.18 -0.18)">
      <defs>
       <path id="DejaVuSans-41" d="M 2188 4044 
L 1331 1722 
L 3047 1722 
L 2188 4044 
z
M 1831 4666 
L 2547 4666 
L 4325 0 
L 3669 0 
L 3244 1197 
L 1141 1197 
L 716 0 
L 50 0 
L 1831 4666 
z
" transform="scale(0.015625)"/>
       <path id="DejaVuSans-72" d="M 2631 2963 
Q 2534 3019 2420 3045 
Q 2306 3072 2169 3072 
Q 1681 3072 1420 2755 
Q 1159 2438 1159 1844 
L 1159 0 
L 581 0 
L 581 3500 
L 1159 3500 
L 1159 2956 
Q 1341 3275 1631 3429 
Q 1922 3584 2338 3584 
Q 2397 3584 2469 3576 
Q 2541 3569 2628 3553 
L 2631 2963 
z
" transform="scale(0.015625)"/>
       <path id="DejaVuSans-6f" d="M 1959 3097 
Q 1497 3097 1228 2736 
Q 959 2375 959 1747 
Q 959 1119 1226 758 
Q 1494 397 1959 397 
Q 2419 397 2687 759 
Q 2956 1122 2956 1747 
Q 2956 2369 2687 2733 
Q 2419 3097 1959 3097 
z
M 1959 3584 
Q 2709 3584 3137 3096 
Q 3566 2609 3566 1747 
Q 3566 888 3137 398 
Q 2709 -91 1959 -91 
Q 1206 -91 779 398 
Q 353 888 353 1747 
Q 353 2609 779 3096 
Q 1206 3584 1959 3584 
z
" transform="scale(0.015625)"/>
       <path id="DejaVuSans-66" d="M 2375 4863 
L 2375 4384 
L 1825 4384 
Q 1516 4384 1395 4259 
Q 1275 4134 1275 3809 
L 1275 3500 
L 2222 3500 
L 2222 3053 
L 1275 3053 
L 1275 0 
L 697 0 
L 697 3053 
L 147 3053 
L 147 3500 
L 697 3500 
L 697 3744 
Q 697 4328 969 4595 
Q 1241 4863 1831 4863 
L 2375 4863 
z
" transform="scale(0.015625)"/>
       <path id="DejaVuSans-44" d="M 1259 4147 
L 1259 519 
L 2022 519 
Q 2988 519 3436 956 
Q 3884 1394 3884 2338 
Q 3884 3275 3436 3711 
Q 2988 4147 2022 4147 
L 1259 4147 
z
M 628 4666 
L 1925 4666 
Q 3281 4666 3915 4102 
Q 4550 3538 4550 2338 
Q 4550 1131 3912 565 
Q 3275 0 1925 0 
L 628 0 
L 628 4666 
z
" transform="scale(0.015625)"/>
       <path id="DejaVuSans-4e" d="M 628 4666 
L 1478 4666 
L 3547 763 
L 3547 4666 
L 4159 4666 
L 4159 0 
L 3309 0 
L 1241 3903 
L 1241 0 
L 628 0 
L 628 4666 
z
" transform="scale(0.015625)"/>
       <path id="DejaVuSans-50" d="M 1259 4147 
L 1259 2394 
L 2053 2394 
Q 2494 2394 2734 2622 
Q 2975 2850 2975 3272 
Q 2975 3691 2734 3919 
Q 2494 4147 2053 4147 
L 1259 4147 
z
M 628 4666 
L 2053 4666 
Q 2838 4666 3239 4311 
Q 3641 3956 3641 3272 
Q 3641 2581 3239 2228 
Q 2838 1875 2053 1875 
L 1259 1875 
L 1259 0 
L 628 0 
L 628 4666 
z
" transform="scale(0.015625)"/>
       <path id="DejaVuSans-4d" d="M 628 4666 
L 1569 4666 
L 2759 1491 
L 3956 4666 
L 4897 4666 
L 4897 0 
L 4281 0 
L 4281 4097 
L 3078 897 
L 2444 897 
L 1241 4097 
L 1241 0 
L 628 0 
L 628 4666 
z
" transform="scale(0.015625)"/>
      </defs>
      <use xlink:href="#DejaVuSans-41"/>
      <use xlink:href="#DejaVuSans-76" x="62.533203"/>
      <use xlink:href="#DejaVuSans-65" x="121.712891"/>
      <use xlink:href="#DejaVuSans-72" x="183.236328"/>
      <use xlink:href="#DejaVuSans-61" x="224.349609"/>
      <use xlink:href="#DejaVuSans-67" x="285.628906"/>
      <use xlink:href="#DejaVuSans-65" x="349.105469"/>
      <use xlink:href="#DejaVuSans-20" x="410.628906"/>
      <use xlink:href="#DejaVuSans-6f" x="442.416016"/>
      <use xlink:href="#DejaVuSans-66" x="503.597656"/>
      <use xlink:href="#DejaVuSans-20" x="538.802734"/>
      <use xlink:href="#DejaVuSans-44" x="570.589844"/>
      <use xlink:href="#DejaVuSans-4e" x="647.591797"/>
      <use xlink:href="#DejaVuSans-50" x="722.396484"/>
      <use xlink:href="#DejaVuSans-4d" x="782.699219"/>
     </g>
    </g>
    <g id="line2d_48">
     <path d="M 80.292188 274.918237 
L 98.292188 274.918237 
L 116.292188 274.918237 
" style="fill: none; stroke-dasharray: 19.2,4.8,3,4.8; stroke-dashoffset: 0; stroke: #2ca02c; stroke-width: 3"/>
     <g>
      <use xlink:href="#m8b582f4a7c" x="98.292188" y="274.918237" style="fill-opacity: 0; stroke: #2ca02c; stroke-width: 3"/>
     </g>
    </g>
    <g id="text_27">
     <!-- Outlier of DNPM -->
     <g transform="translate(130.692188 281.218237) scale(0.18 -0.18)">
      <defs>
       <path id="DejaVuSans-4f" d="M 2522 4238 
Q 1834 4238 1429 3725 
Q 1025 3213 1025 2328 
Q 1025 1447 1429 934 
Q 1834 422 2522 422 
Q 3209 422 3611 934 
Q 4013 1447 4013 2328 
Q 4013 3213 3611 3725 
Q 3209 4238 2522 4238 
z
M 2522 4750 
Q 3503 4750 4090 4092 
Q 4678 3434 4678 2328 
Q 4678 1225 4090 567 
Q 3503 -91 2522 -91 
Q 1538 -91 948 565 
Q 359 1222 359 2328 
Q 359 3434 948 4092 
Q 1538 4750 2522 4750 
z
" transform="scale(0.015625)"/>
      </defs>
      <use xlink:href="#DejaVuSans-4f"/>
      <use xlink:href="#DejaVuSans-75" x="78.710938"/>
      <use xlink:href="#DejaVuSans-74" x="142.089844"/>
      <use xlink:href="#DejaVuSans-6c" x="181.298828"/>
      <use xlink:href="#DejaVuSans-69" x="209.082031"/>
      <use xlink:href="#DejaVuSans-65" x="236.865234"/>
      <use xlink:href="#DejaVuSans-72" x="298.388672"/>
      <use xlink:href="#DejaVuSans-20" x="339.501953"/>
      <use xlink:href="#DejaVuSans-6f" x="371.289062"/>
      <use xlink:href="#DejaVuSans-66" x="432.470703"/>
      <use xlink:href="#DejaVuSans-20" x="467.675781"/>
      <use xlink:href="#DejaVuSans-44" x="499.462891"/>
      <use xlink:href="#DejaVuSans-4e" x="576.464844"/>
      <use xlink:href="#DejaVuSans-50" x="651.269531"/>
      <use xlink:href="#DejaVuSans-4d" x="711.572266"/>
     </g>
    </g>
   </g>
  </g>
 </g>
 <defs>
  <clipPath id="pa7f6a23c97">
   <rect x="64.092188" y="35.049675" width="357.12" height="266.112"/>
  </clipPath>
 </defs>
</svg>
